<svg id="Layer_1" data-name="Layer 1" xmlns="http://www.w3.org/2000/svg" viewBox="0 0 39.15 43.35"><defs><style>.cls-1{fill:#010101;}</style></defs><path class="cls-1" d="M256.88,256.18a54.87,54.87,0,0,0,5.95-5.83,25.1,25.1,0,0,0,5,1.64c4.57,1.15,5.63-.28,7.21-1.4,2.82-2.62.73-5.91-.44-7.84-2.34-2.89-3-5.05-4.35-8.37a23.6,23.6,0,0,1-1.63-7c-.76-3.12-2.92-8-8-12.74-3.17-2.42-3.28-2.37-6.47,0-5.34,3.91-6.71,7.69-8.23,11.76a62.24,62.24,0,0,1-7,16.29c-3.22,4.83-.8,6.62.92,8.4s3.87,1.29,7.7.81a8.26,8.26,0,0,0,3.5-1.52A55.4,55.4,0,0,0,256.88,256.18Zm-1-23.19a.71.71,0,0,1,1-.72c.62,0,.61.32.58.75.08.24.09.36.28.51a2.07,2.07,0,0,0,1.48,1.34,26.92,26.92,0,0,1,3.29,1c1.44.87,1.11,1.73.72,2.17a7.57,7.57,0,0,0-1.77,3.55,2.66,2.66,0,0,1-1.75,1.9,1.5,1.5,0,0,0-.41.28c.08.11,0,.19,0,.3h.2c.1.9-.37.84-.24,1.48-1.17,1-2.78.87-4.38.24-1.31-.75-1.79-2.31-3.22-3.37-.87-1.56-1.21-3.11-2.06-4.66-.76-.7-.48-2.16,1.24-2.4.09,0,1.56-.34,3.09-.66,1.24.05,1.19-.37,1.47-.83A2.62,2.62,0,0,1,255.86,233Zm-.57,10.07a2.39,2.39,0,0,0,.88-.42,3.93,3.93,0,0,1,1.22-.09c.18.39.48.43.76.81l-.1.26H255.6l-.58-.26-.05-.16C255.19,243.21,255.17,243.13,255.29,243.06Zm.32-5.28a1.06,1.06,0,0,0,1.53,0c.18-.32.38-.33.59-.26l.74,0c.1,0,.19,0,.15.21a1.84,1.84,0,0,1-.68,1.28,2.8,2.8,0,0,0-.88,1.55v.28c0,.18.19.23.39.23a14.26,14.26,0,0,0,1.71.47l0,.07h-2.33c-.16.12-.3.15-.43,0-.32,0-.8.07-.86-.09l-1,0a3.07,3.07,0,0,1,1.28-.58c.26,0,.23-.13.22-.27,0-.56-.27-.71-.41-1a6.68,6.68,0,0,1-1.08-1.38l0-1c0,.09.1.14.24.08l0,.1a.77.77,0,0,1,.78.35Z" transform="translate(-237.34 -212.84)"/></svg>