<svg id="Layer_1" data-name="Layer 1" xmlns="http://www.w3.org/2000/svg" viewBox="0 0 43.88 43.22"><defs><style>.cls-1{fill:#010101;}</style></defs><path class="cls-1" d="M262,366.33l-4.37-4.45c2.58-3.79-2.46-7.43-3.79-8.13-4.7-2.48-7.69,2.2-5.53,6.47-8.3-7.16,5.48-14.84,12.33-7.27C265.77,358.67,264,365,262,366.33Z" transform="translate(-245.69 -327.05)"/><path class="cls-1" d="M263.15,366.25a1,1,0,0,0-.11,1.23l2.44,2.51c.43.53.42.19.61,0,.78-.6.86-1.17,2.49-2.48a1.27,1.27,0,0,0,.39-.76c-.17-.62.2-.72.38-1.06,3.46-4.8,6.52-3.64,9.77-3.64,9.48,1.37,10.32-2.38,10.45-3.72-1.73,1.18-2.52,1.94-6.49,1.49-6.29-2.39-9.94-2-12.26-.49A23.89,23.89,0,0,0,263.15,366.25Z" transform="translate(-245.69 -327.05)"/><path class="cls-1" d="M265.91,361.46c4.06-3,7.42-4.95,10.32-4.34,2.78-2,10-6.56,8-13.06-.1-2.22-3.44-6.87-8.9-4.15-1.52,1-3.15,1.81-2.88,5.63,1.07-1,2.1-2,3.76-2.07,1.18.33,3.12-.52,2,3.26-.43,1.53-1.78,3-4.36,4.06C272.43,351.64,265.07,356.13,265.91,361.46Z" transform="translate(-245.69 -327.05)"/><path class="cls-1" d="M265.13,358.65a7.88,7.88,0,0,1,3.83-5.22c-.32-3-1.64-6.94-5.71-8.56-2.08-1.93-4.37-3.17-4.08-7.18,2.7-6.35,9.46-2.14,5.88,4.66,2-2.17,5.77-1,4.81-9.23-2.58-6.41-11.2-9-16.66-1.49-2,3.17-7.07,11.21,1.9,17.48C259.05,351,262.93,350.38,265.13,358.65Z" transform="translate(-245.69 -327.05)"/></svg>