<svg id="Layer_1" data-name="Layer 1" xmlns="http://www.w3.org/2000/svg" viewBox="0 0 35.01 43.12"><defs><style>.cls-1{fill:#010101;}</style></defs><path class="cls-1" d="M333.51,223.92c-1.77-.48-.68-2.22.07-3,2.21-2.31,2.67-5.07,6.11-5.65,5.17-2.46,11.75-3.52,16.09.28.43.27.53.74.21,1.44-.4,1.79-.55,3.47-1.37,4-.1,2.91-1.51,3-1.23,3.84-1.19,1.43-1.54,2.09-1.66,3.3.09,1.37-1.33,3.85-2.8,6.19a6,6,0,0,1-3.46-2.31,5.34,5.34,0,0,0-2.64-1.91,10.47,10.47,0,0,1-5.07-2.68c-.17-1.34-.94-1.28-1.28-1.44C335.48,224.67,334.07,224.78,333.51,223.92Z" transform="translate(-328.47 -213.02)"/><path class="cls-1" d="M352.09,234A5.2,5.2,0,0,0,353,231c1.66-1.43,1.72-4.34,2.35-5.5.27-2,1-2.34,1.53-4.37.36-.83.7-.67,1.06-.16,1.09.77,1.66,2.2,2.5,4.2,1.39,1.4,1.06,3.8,1.63,5.94,1.63,3.29,1.48,8,1.36,10.17-1.24-.63-6.17.64-9.05,1.69-.27-.91,0-2-1.06-2.66-1.22-1.34-1.16-2.48-1.54-3.81C351.08,235.28,351.72,234.68,352.09,234Z" transform="translate(-328.47 -213.02)"/><path class="cls-1" d="M330.94,254c-1.48-7.54-3-13.75-2.28-26.57-.19-1,.5-1.28,1.82-1,4.1,3.16,3.12.92,8.35,4.11,2.78.83,1.07,2.06,3.63,2.42,6.74,3.14,7.49,5.77,9.19,10.18.7,4.65,1.19,6.25,1.19,9.73,0,.87-.6,1.63-2,1-8.83,0-5.69,1.49-19.54,2.19C331.64,255,330.69,254.68,330.94,254Z" transform="translate(-328.47 -213.02)"/></svg>