<svg id="Layer_1" data-name="Layer 1" xmlns="http://www.w3.org/2000/svg" viewBox="0 0 42.37 43.23"><defs><style>.cls-1{fill:#010101;}</style></defs><path class="cls-1" d="M69.69,63c.14.12.09.17-.32.18-2.69,0-6.2-2.15-3.47-5.52a6.8,6.8,0,0,1,.15.73,1.14,1.14,0,0,0,.34,1.16c.2.13.21,0,.26-.17.34-.78.83-2.42,0-3.52a7.37,7.37,0,0,1,2.48,2c.43.47.84.77.46,2.87C68.89,62.05,69.28,62.44,69.69,63Z" transform="translate(-46.9 -40.39)"/><path class="cls-1" d="M64.78,57c-5.74.82-7.09,6.66,1.35,6.3.72,0,.39-.23,0-.31-.63.11-.24-.17-.54-.3a4.86,4.86,0,0,1-2-1.41C62.75,59.71,64.13,58.06,64.78,57Zm5.32,5c.47-.87.93-1,1.18-1.36.15,0,.47-.84.56-1.12.34-.66-.73-1.75-1.65-2a.84.84,0,0,1-.45-.12c-.24-.06-.41,0-.39-.09S69.76,57,70,57s.31-.12,1-.07a.63.63,0,0,1,.4-.09l0-.46c4.14-.11,3.38,2.94,1.63,4.1A6.26,6.26,0,0,1,70.1,61.91Z" transform="translate(-46.9 -40.39)"/><path class="cls-1" d="M61.82,51.22a1.26,1.26,0,0,1-.26.55,1.33,1.33,0,0,1-.09.63c-.1.17-.22.24-.42.1l-1.49-.21c-.42,0-.2-.43-.23-.71,1-3.87,1.57-6.32,2.65-9.88.3.07.2,0,.39.11a6.33,6.33,0,0,1,0-1.11c0-.26.14-.59.44.09,1.62,3.66,4,6.56,5.34,7.35-.43.07-1.15-.1-.15.53a51.38,51.38,0,0,1,8.13,7.47c.4.27-.29.61-.75.81-2.63-2.1-5.73-4-8.14-6a2.88,2.88,0,0,0,.33.85,9.79,9.79,0,0,1-2.67-1.62c-.22-.42-.23,0-.11.2a1.22,1.22,0,0,0,.14.82,8.86,8.86,0,0,1-1.67-1.31c-.94-.78-.8-.17-1,.14C62.09,50.62,61.87,50.74,61.82,51.22Zm7.72,13.65c-.82.79.46,1.57,1.24.53a55.12,55.12,0,0,1,7-5.49,85.83,85.83,0,0,0,11.53-9.48c-1,0-3.07,1.12-6.41,1.72-.14,0-.28.06-.17.23s0,.17-.12.18a43.2,43.2,0,0,1-5,.8c-.1.06-.07.09-.27.09s-.23.06,0,.27a.38.38,0,0,0,.2.08c.07.06.07.12-.08.13a1.57,1.57,0,0,0-.7.1,3,3,0,0,1-.88,0,.24.24,0,0,0,.13.19,1.38,1.38,0,0,0,1.36.62.63.63,0,0,0,.48-.1,10.3,10.3,0,0,0,1.47,0c.27.22-.4.78-.62,1.19a1.2,1.2,0,0,0-.55.74,23.72,23.72,0,0,1-3.2,2.84A42.85,42.85,0,0,0,69.54,64.87Zm2.17-9.4A2.54,2.54,0,0,0,69.4,54c-4.65-.52-15-.87-22-5.06-.3-.33-.69-.19-.3.51A23,23,0,0,0,57.15,61.16a6.38,6.38,0,0,0,.27-1.33,2.13,2.13,0,0,0-.5-1.3c-1.7-.71-2.81-2.25-4.12-3.51a3.83,3.83,0,0,0,1.06.26c.61.15.94.11,1.06,0a.62.62,0,0,1-.38-.23c-.41-.15-.38-.29.09-.21s.7,0,1,0a3.37,3.37,0,0,1,1,.16,1.37,1.37,0,0,0,.57,0c.1-.12,0-.16-.11-.18-2.5-.91-2.27-.86-2.43-.88-.5-.17-.28-.31.09-.19C60.45,55.64,70.56,55.45,71.71,55.47ZM60.42,83.62a16.62,16.62,0,0,0-.59-3.06c-.18-.57-.16-1,.33-.25A3.27,3.27,0,0,0,61,81.44c-.11-5.55,3.72-9.9,5.89-12.7.37-.27-2-1.37-2.48-2.14-.18-.26-.22.06-.5.08-.8,1.17-2.14,2.43-2.57,3.4-.11.24-.67.74-.71.89s-.29.23-.41,0l-.1-.47c-.18-.58,0-.63.11-.44s.25,0,.29-.13c-.82-4.79-.88-10.45.06-14a5.13,5.13,0,0,0-2.08-.29c-.85,6.14-2.09,12-1.39,18.26.17.76,0,.86-.18.15-.23-.4-.43-1.51-.58-1.65C56.21,77,58.91,82.37,60.42,83.62Zm28.85-8.36C86,68.75,82.83,63.62,79.12,60.06a5.87,5.87,0,0,0-1.92,1.22L79.72,67c.41.7,1.16,1.67-.45.83a14.9,14.9,0,0,0-4.51-.92.46.46,0,0,0,.34.36,6,6,0,0,1-2.26-.56,1.2,1.2,0,0,0-.69-.09l.35.46A75.27,75.27,0,0,1,61.05,63c-.16,0-.41-.19-.39.18-.27.49.06.46.25.78C62.61,65.42,78.15,73.3,89.27,75.26Z" transform="translate(-46.9 -40.39)"/></svg>
