<svg id="Layer_1" data-name="Layer 1" xmlns="http://www.w3.org/2000/svg" viewBox="0 0 30.4 43.26"><defs><style>.cls-1{fill:#010101;}</style></defs><path class="cls-1" d="M300.34,241.43c.3.06.47.44.56.76,1,2.26,1.1,1.23,1.49,2,.77,1.72.64,2.4.32,3.22a1.38,1.38,0,0,1-.65,1.32,1.58,1.58,0,0,0-.59.41.58.58,0,0,1-.74-.16c-.45-.76-.72-.18-1,0-.05.2-.23.41-.13.69a.81.81,0,0,1-1-.07c-.23-.26-.8,0-1-1-.11-.24,0-.31-.25-.5-.48-.15-.61-1.05,0-1.63.05-.39,1.73-2.49,1.65-3.83C299.6,241.63,300,241.37,300.34,241.43ZM309,235a1.64,1.64,0,0,1,.82.29c.54.39.86.29,2.29,1a4.58,4.58,0,0,1,1,4.7c-2.37,2-3.83,3.06-7,2-.85-.37-1.3-.27-1.51-.75-.34-.86-1.29-1-1.61-2.31-.44-.14-.33.23-.57.07.39-.77.25-.92.8-1.42a1.52,1.52,0,0,0,.07-1.72c-.35-.16-.3-.57.3-.48,1.29,0,1.64-.65,2-.66s.44,0,.57-.51c.18-.27.38.08.9.17C308.34,235.74,308.41,235,309,235Zm-15.28-.09c2.92.69,4.22,1.43,3.85,2.27.06.38.42.22.62.22.08-.19,0-.17,0-.47.05-.1.24-.31.42.08-.12.71-.21.46,0,1a1.85,1.85,0,0,0,0,1.63c.33.6.07.54.17,1.16-.26-.06-.42-.08-.53-.42-.65-.58-.67.16-.82.15s-.16.29-.16.4c-1.23.41-1.08.81-1.52,1.17-.24.63-1.69,1-3,.9-1.83-.11-1.45,0-1.84.31-.2.38-.36.83-.91.19-.05-.32-.12-.39-.5-.5-1.72-1.19-1.91-3.77-1.84-4.6.61-1.21-.15-1.32.28-1.9C288.39,235,290.3,235.2,293.73,234.88Zm5.7-22a17.94,17.94,0,0,0-10.3,3.67,14.35,14.35,0,0,1-2,2.23c-.78.48-1.11.73-2,3.79-.68,2.91-1.41,7.47-.29,10.32a14,14,0,0,1,.46-3.14c.71-.41.49-1.76.49-2.89-.12-1.87.15-.83.33-.41a19.43,19.43,0,0,1-.14,7c-.28,1.42-.81,1.89-.11,4.66a7.26,7.26,0,0,1,.3,2.13,6.27,6.27,0,0,1-.7,1.58c-.15.74-.9,1,.07,2.48a3.1,3.1,0,0,0,1.07,1.58,1.42,1.42,0,0,0,2,.19,11.16,11.16,0,0,1,7.08-.24l.48.32c-.12.51-.37,1.08-.2,1.49s-.09.93-.55.95a6,6,0,0,0-1.45,5.13c.4,1.27,1.07,1.31,1.16.72-.05-1,.76-2.22.84-2a7,7,0,0,0-.16,1.92,1,1,0,0,0,.72,1c.24.19,1,.32,1,.08a3.48,3.48,0,0,1,.38-.93,2.21,2.21,0,0,0,.13,1.22.52.52,0,0,0,.52.36.75.75,0,0,0,.8-.19c.17-.14.25-.38.13-.42.05-.88-.37-1.29.12-2.47.14-.76.39-1.43.41,0a4.68,4.68,0,0,1,.12,1,3.7,3.7,0,0,0-.08,1.45c.08.35.14.67,1,.55.56,0,.52-.19.72-.27s.25,0,.51-.19a.54.54,0,0,0-.43-.59c0-.17-.08-.2,0-.29.51-.14.43-.22.53-.39s.43.26.21.44c0,.43,0,.66.19.72s.62-.3,1.11-.41c.34-.18.48-.35.39-.88.08-.58-.29-.45-.24-1.1.28-1.08.39-.67.44-.08.22,1,.29,1.48.56,1.25,1.31-.74.73-1,1.4-1.2.37-.11.39-.22.29-.57-.17-1.94-.62-1.7-.73-2.46.11-1.18-.25-.58-.55-.45-.65-1.07-.41-.72-1.56-.71-.27.08-.27-.13-.33-.32a2,2,0,0,1,.09-1.74c-.25-.68.45-1,1.24-1.07a11.39,11.39,0,0,1,7,.58c.61.65,1,.45,1.24.16a4.13,4.13,0,0,1,1.07-1c.72-.8.28-1.4.24-2.06a2.9,2.9,0,0,1,.09-2.39,10.42,10.42,0,0,0-.55-3.48,9.24,9.24,0,0,0-.85-2.7c-1.14-1.28-.67-2-.83-3.23a33.46,33.46,0,0,1,.5-3.83c.09,1.75-.09,2.67.49,3.5.26.71-.14,1.62.37,2.85.26-.64,1-3.07.78-9.85a10,10,0,0,0-2.06-5,25.14,25.14,0,0,1-2.47-2.88C307.89,214.19,303.86,212.74,299.43,212.89Z" transform="translate(-284.3 -212.88)"/></svg>