<svg id="Layer_1" data-name="Layer 1" xmlns="http://www.w3.org/2000/svg" viewBox="0 0 40.66 43.06"><defs><style>.cls-1{fill:#010101;}</style></defs><path class="cls-1" d="M195.69,246.5a12,12,0,0,1,3.46-2.62c-.32-4.91.69-7,1.24-10.11-3.11-.78-6.14-.41-9.57-4.2a28.61,28.61,0,0,1,.78,10.4C193.26,241.46,195.11,242.53,195.69,246.5Z" transform="translate(-190.82 -212.99)"/><path class="cls-1" d="M226.61,246.52a12,12,0,0,0-3.46-2.62c.32-4.9-.69-7-1.24-10.1,3.11-.78,6.14-.42,9.57-4.2a28.6,28.6,0,0,0-.78,10.4C229,241.48,227.2,242.55,226.61,246.52Z" transform="translate(-190.82 -212.99)"/><path class="cls-1" d="M204.43,230.06c-1.69,4.57-3.8,9.89-2.89,15.51a2,2,0,0,0,1,2l8.66,8.5,9.49-9.4c.4-.2.47-.57.33-1.07.3-6.69-1.68-13.37-2.23-13.78-.6-.86.47-1.33,1.32-1.9,1.89,0,6.38-3.65,6.89-3.59a8.06,8.06,0,0,1,1.83-1.93c.44-.33.18-.5,1.25-.39a2.77,2.77,0,0,0,.59-4.31c-1.94-1.11-3.86.22-3.42,2.66a12.07,12.07,0,0,1-5.29,2.14,7,7,0,0,0-2.57,1.05,2.18,2.18,0,0,0-2.09,1.33c-.41.29-.71.27-1.07.9-.28-1.08.68-1.7,1.16-2.31a14.1,14.1,0,0,0,3-8.41c1.25-.3,2.2-3.8-.33-4-3.44,0-3.4,2.59-2,3.5a16.36,16.36,0,0,1-1.94,5.06c-.71.35-1.16,1.17-1.76,1.91-1.27,1.08-2.7,1.16-4.36-.25-1-1.24-2.35-2.22-2.73-3.71.07-.82-.66-1-.94-1.42,1.39-2.76-.81-3.6-1.44-3.52-2.16.29-2.47,2.87-.83,4.11-.47,2.49.73,3.44.77,4,.39,1.89,3.16,4.07,3.27,4.47.81,1.18.31.83-.33.32-.85-.87-2-1.26-2.78-2.31-.82-1.53-1.87-1.13-2.83-1.48-.68-.06-.66,0-1.15-.36-.67-.53-1.79-.89-2.3-1.35s-.37-.33-.3-.84a1.92,1.92,0,0,0-3.51-1c-1.06,1.49.73,3.27,1.63,3.44.91,1.17,3.8,4.56,6.7,5.47C203.92,229.12,204.13,229.88,204.43,230.06Z" transform="translate(-190.82 -212.99)"/></svg>